<?xml version="1.0" standalone="no"?>
<!DOCTYPE svg PUBLIC "-//W3C//DTD SVG 20010904//EN"
 "http://www.w3.org/TR/2001/REC-SVG-20010904/DTD/svg10.dtd">
<svg version="1.0" xmlns="http://www.w3.org/2000/svg"
 width="842.000000pt" height="66.000000pt" viewBox="0 0 842.000000 66.000000"
 preserveAspectRatio="xMidYMid meet">

<g transform="translate(0.000000,66.000000) scale(0.100000,-0.100000)"
fill="#fff" stroke="none">
<path d="M865 615 c-206 -29 -375 -84 -570 -183 -91 -47 -139 -66 -159 -64
-34 4 -76 -31 -76 -64 0 -61 83 -92 122 -45 10 13 18 31 18 41 0 36 278 141
473 179 310 60 613 51 1029 -29 220 -43 224 -46 65 -53 -114 -5 -144 -3 -179
10 -32 12 -78 17 -178 17 -115 1 -146 -3 -210 -23 -195 -61 -290 -155 -290
-288 0 -49 10 -67 25 -43 10 17 80 49 129 60 25 5 114 17 198 25 222 21 293
48 338 127 30 53 70 62 265 61 195 -1 372 -28 693 -108 524 -131 894 -182
1107 -154 55 7 141 12 192 10 125 -4 189 16 254 76 26 25 58 65 70 90 l22 45
28 -53 c35 -62 78 -104 139 -133 37 -17 65 -21 160 -22 63 -1 164 -7 224 -14
221 -26 633 35 1176 174 232 59 432 88 615 89 196 1 230 -7 265 -64 46 -76
142 -111 335 -124 171 -12 306 -46 330 -85 15 -24 25 -6 25 43 0 131 -98 228
-290 288 -97 31 -305 34 -385 7 -42 -14 -72 -16 -190 -10 l-140 7 155 33 c457
96 767 106 1109 36 197 -40 451 -139 451 -174 0 -10 8 -28 18 -41 39 -47 122
-16 122 45 0 33 -43 70 -75 64 -19 -4 -65 14 -168 67 -287 145 -557 205 -872
192 -308 -13 -551 -62 -1219 -243 -292 -79 -725 -188 -855 -215 -99 -20 -320
-49 -378 -49 -18 0 -33 5 -33 10 0 6 6 10 13 10 6 0 59 23 117 51 78 38 126
55 186 64 125 19 269 69 389 135 61 33 152 81 204 107 107 54 110 49 -48 89
-69 18 -120 24 -196 24 -189 0 -271 -44 -399 -214 -81 -108 -122 -141 -213
-169 -175 -55 -327 -60 -408 -13 -61 36 -97 88 -103 149 -9 88 45 151 139 162
52 7 87 -9 108 -47 14 -25 14 -28 -17 -56 -38 -36 -40 -52 -9 -87 27 -32 91
-38 131 -12 22 15 26 25 26 65 -1 98 -61 172 -158 193 -100 21 -232 -28 -281
-106 l-27 -43 -18 31 c-44 82 -181 139 -283 118 -91 -18 -146 -71 -162 -157
-11 -55 -1 -88 30 -104 31 -17 85 -15 114 4 36 23 35 77 -1 104 -25 18 -26 20
-13 48 19 39 55 56 107 49 86 -10 142 -67 142 -143 0 -57 -13 -85 -61 -132
-88 -86 -245 -92 -467 -19 -74 25 -111 55 -184 147 -149 193 -218 232 -404
232 -106 0 -198 -15 -294 -48 l-55 -19 48 -21 c26 -11 93 -47 150 -78 56 -32
116 -65 132 -74 86 -47 324 -120 395 -120 17 0 70 -20 118 -44 48 -24 104 -50
125 -57 44 -16 48 -29 8 -29 -185 0 -535 74 -1206 255 -527 143 -732 190 -962
225 -181 28 -462 35 -598 15z"/>
</g>
</svg>
